Format                                   : Matroska
Format                          :2
File size                                : 719 MiB
Duration                                 : 1h 56mnbit rate mode                    :bit rate                         : 861 Kbpsname                               : Pineapple.Express[2008].Unrated.BRRip.720p.x264.[Dual Audio] [Hindi+English].by K@rtik [ExD
Encoded date                             : UTC 2012-07-28 19:47:58

Format                                   :
Format settings, ReFrames                : 4 frames
Duration                                 : 1h 56mn
Bit rate                                 : 588 Kbps
Nominal bit rate                         : 647 Kbps
Width                                    : 1 280 pixels
Height                                   : 560 pixels
Display aspect ratio                     : 2.25:1
Title                                    : K@rtik
Writing library                          : x264 core 125 r2200 999b753

Format                                   : AC-3
Codec ID                                 : A_AC3
Duration                                 : 1h 56mn
Bit rate                                 : 224 Kbps
Channel(s)                               : 2 channels
Sampling rate                            : 48.0 KHz
Bit depth                                : 16 bits
Compression mode                         : Lossy
Delayto                 : 7s 500ms
Stream size                              : 187 MiB (26%)
Title                                    : K@rtik
Language                                 : Hindi
Format                                   : MPEG Audio
Codec ID                                 : A_MPEG/L3
Duration                                 : 1h 52mn
Bit rate mode                            :
Bit rate                                 : 32.0 Kbps
Channel(s)                               : 1 channel
Sampling rate                            : 22.05 KHz
Compression mode                         : Lossy
Stream size                              : 25.7 MiB (4%)
Title                                    : K@rtik 
http://img685.imageshack.us/img685/5332/91718063.png 
http://img39.imageshack.us/img39/3517/23771395.png 
http://img51.imageshack.us/img51/7679/32045333.png 
http://img860.imageshack.us/img860/778/15924387.png 
http://img402.imageshack.us/img402/6716/75259401.png 
http://img827.imageshack.us/img827/2853/18733737.png 
http://img809.imageshack.us/img809/4963/58111273.png 
http://img585.imageshack.us/img585/3039/46581760.png 
http://img26.imageshack.us/img26/5831/76133504.png 
http://img684.imageshack.us/img684/6206/64150312.png